<svg width="512" height="512" viewBox="0 0 512 512" fill="none" xmlns="http://www.w3.org/2000/svg">
  <rect width="512" height="512" rx="128" fill="url(#bg)" />
  <rect x="64" y="64" width="384" height="384" rx="96" fill="url(#panel)" stroke="rgba(255,255,255,0.42)" stroke-width="6" />
  <rect x="146" y="146" width="220" height="220" rx="56" fill="url(#accent)" />
  <path d="M208 304V208H254C286 208 306 226 306 254C306 282 286 304 254 304H208ZM246 274H252C265 274 274 266 274 254C274 242 265 234 252 234H246V274Z" fill="white"/>
  <path d="M276 208H310V304H276V208Z" fill="white"/>
  <circle cx="404" cy="130" r="10" fill="#F97316" />
  <defs>
    <linearGradient id="bg" x1="72" y1="36" x2="448" y2="476" gradientUnits="userSpaceOnUse">
      <stop stop-color="#39414A" />
      <stop offset="1" stop-color="#1C2127" />
    </linearGradient>
    <linearGradient id="panel" x1="96" y1="96" x2="416" y2="416" gradientUnits="userSpaceOnUse">
      <stop stop-color="#EEF2F7" stop-opacity="0.18" />
      <stop offset="1" stop-color="#D7DDE6" stop-opacity="0.06" />
    </linearGradient>
    <linearGradient id="accent" x1="168" y1="150" x2="344" y2="362" gradientUnits="userSpaceOnUse">
      <stop stop-color="#FB923C" />
      <stop offset="1" stop-color="#EA580C" />
    </linearGradient>
  </defs>
</svg>
